<?xml version="1.0" encoding="UTF-8" standalone="no"?>
<!DOCTYPE svg PUBLIC "-//W3C//DTD SVG 1.1//EN" "http://www.w3.org/Graphics/SVG/1.1/DTD/svg11.dtd">
<svg width="100%" height="100%" viewBox="0 0 1080 1080" version="1.1" xmlns="http://www.w3.org/2000/svg" xmlns:xlink="http://www.w3.org/1999/xlink" xml:space="preserve" xmlns:serif="http://www.serif.com/" style="fill-rule:evenodd;clip-rule:evenodd;stroke-linejoin:round;stroke-miterlimit:2;">
    <g transform="matrix(23.8293,0,0,23.8293,-6715.18,-9514.45)">
        <g transform="matrix(24,0,0,24,326.887,429.965)">
        </g>
        <text x="281.767px" y="429.965px" style="font-family:'Moqarin-Demo', 'Moqarin';font-size:24px;fill:white;">Spa<tspan x="308.407px 318.247px " y="429.965px 429.965px ">ce</tspan></text>
    </g>
    <g transform="matrix(6.71098,0,0,6.71098,-1748.08,-1971.57)">
        <text x="281.767px" y="429.965px" style="font-family:'RetroFloral', 'Retro Floral';font-size:24px;fill:rgb(255,221,0);">O<tspan x="305.001px 324.495px " y="429.965px 429.965px ">RE</tspan></text>
        <g transform="matrix(24,0,0,24,399.145,429.965)">
        </g>
        <text x="343.11px" y="429.965px" style="font-family:'RetroFloral', 'Retro Floral';font-size:24px;fill:white;">p<tspan x="361.286px 380.242px " y="429.965px 429.965px ">ra</tspan></text>
    </g>
    <g transform="matrix(6.82291,0,0,6.82291,-1812.12,-2658.55)">
        <g transform="matrix(24,0,0,24,406.746,429.965)">
        </g>
        <text x="281.767px" y="429.965px" style="font-family:'RetroFloral', 'Retro Floral';font-size:24px;fill:white;">A<tspan x="306.909px 318.516px 341.725px 353.203px 374.455px 393.07px " y="429.965px 429.965px 429.965px 429.965px 429.965px 429.965px "> MINER</tspan></text>
    </g>
</svg>
