<?xml version="1.0" encoding="UTF-8" standalone="no"?>
<!DOCTYPE svg PUBLIC "-//W3C//DTD SVG 1.1//EN" "http://www.w3.org/Graphics/SVG/1.1/DTD/svg11.dtd">
<svg width="100%" height="100%" viewBox="0 0 1080 1080" version="1.1" xmlns="http://www.w3.org/2000/svg" xmlns:xlink="http://www.w3.org/1999/xlink" xml:space="preserve" xmlns:serif="http://www.serif.com/" style="fill-rule:evenodd;clip-rule:evenodd;stroke-linejoin:round;stroke-miterlimit:2;">
    <g transform="matrix(1.32975,0,0,1.51429,-181.362,-338.286)">
        <path d="M240,334.672C240,327.723 235.529,321.37 228.451,318.262C224.497,316.526 220.075,314.585 216.121,312.849C209.043,309.741 204.571,303.388 204.571,296.439C204.571,283.824 204.571,263.259 204.571,248.347C204.571,243.481 206.773,238.814 210.691,235.374C214.609,231.933 219.923,230 225.464,230L874.536,230C880.077,230 885.391,231.933 889.309,235.374C893.227,238.814 895.429,243.481 895.429,248.347L895.429,296.439C895.429,303.388 890.957,309.741 883.879,312.849C879.925,314.585 875.503,316.526 871.549,318.262C864.471,321.37 860,327.723 860,334.672C860,402.837 860,757.493 860,825.658C860,832.607 864.471,838.96 871.549,842.067C875.503,843.803 879.925,845.745 883.879,847.481C890.957,850.589 895.429,856.942 895.429,863.891L895.429,911.653C895.429,916.519 893.227,921.186 889.309,924.626C885.391,928.067 880.077,930 874.536,930C772.515,930 327.485,930 225.464,930C219.923,930 214.609,928.067 210.691,924.626C206.773,921.186 204.571,916.519 204.571,911.653C204.571,896.829 204.571,876.434 204.571,863.891C204.571,856.942 209.043,850.589 216.121,847.481C220.075,845.745 224.497,843.803 228.451,842.067C235.529,838.96 240,832.607 240,825.658L240,334.672Z"/>
    </g>
</svg>
