<?xml version="1.0" encoding="UTF-8" standalone="no"?>
<!DOCTYPE svg PUBLIC "-//W3C//DTD SVG 1.1//EN" "http://www.w3.org/Graphics/SVG/1.1/DTD/svg11.dtd">
<svg width="100%" height="100%" viewBox="0 0 1080 1080" version="1.1" xmlns="http://www.w3.org/2000/svg" xmlns:xlink="http://www.w3.org/1999/xlink" xml:space="preserve" xmlns:serif="http://www.serif.com/" style="fill-rule:evenodd;clip-rule:evenodd;stroke-linejoin:round;stroke-miterlimit:2;">
    <g transform="matrix(1.32975,0,0,1.51429,-181.362,-338.286)">
        <path d="M948.571,223.396L948.571,936.604L136.388,936.604L136.388,223.396L948.571,223.396ZM240,334.672L240,825.658C240,832.607 235.529,838.96 228.451,842.067L216.121,847.481C209.043,850.589 204.571,856.942 204.571,863.891L204.571,911.653C204.571,916.519 206.773,921.186 210.691,924.626C214.609,928.067 219.923,930 225.464,930L874.536,930C880.077,930 885.391,928.067 889.309,924.626C893.227,921.186 895.429,916.519 895.429,911.653L895.429,863.891C895.429,856.942 890.957,850.589 883.879,847.481L871.549,842.067C864.471,838.96 860,832.607 860,825.658L860,334.672C860,327.723 864.471,321.37 871.549,318.262L883.879,312.849C890.957,309.741 895.429,303.388 895.429,296.439L895.429,248.347C895.429,243.481 893.227,238.814 889.309,235.374C885.391,231.933 880.077,230 874.536,230L225.464,230C219.923,230 214.609,231.933 210.691,235.374C206.773,238.814 204.571,243.481 204.571,248.347L204.571,296.439C204.571,303.388 209.043,309.741 216.121,312.849L228.451,318.262C235.529,321.37 240,327.723 240,334.672Z"/>
    </g>
</svg>
